<?xml version="1.0" encoding="UTF-8" standalone="no"?>
<svg
    xmlns:dc="http://purl.org/dc/elements/1.1/"
    xmlns:cc="http://creativecommons.org/ns#"
    xmlns:rdf="http://www.w3.org/1999/02/22-rdf-syntax-ns#"
    xmlns:svg="http://www.w3.org/2000/svg"
    xmlns="http://www.w3.org/2000/svg"
   width="391.76147mm"
   height="268.5415mm"
   viewBox="0 0 391.76147 268.5415"
   version="1.1"
   id="svg8">
    <defs
     id="defs2">
        <clipPath
       clipPathUnits="userSpaceOnUse"
       id="clipPath26">
            <path
         d="M 0,841.89 H 1190.552 V 0 H 0 Z"
         id="path24" />
        </clipPath>
    </defs>
    <metadata
     id="metadata5">
        <rdf:RDF>
            <cc:Work
         rdf:about="">
                <dc:format>image/svg+xml</dc:format>
                <dc:type
           rdf:resource="http://purl.org/dc/dcmitype/StillImage" />
                <dc:title></dc:title>
            </cc:Work>
        </rdf:RDF>
    </metadata>
    <g
     id="layer1"
     transform="translate(93.071212,-10.116158)">
        <g
       id="g22"
       clip-path="url(#clipPath26)"
       transform="matrix(0.35277777,0,0,-0.35277777,-107.34453,292.28828)">
            <g
         id="g28"
         transform="translate(1135.9648,73.624)">
                <path
           d="m 0,0 c 0,-11.036 -8.652,-19.986 -19.323,-19.986 h -1041.859 c -10.672,0 -19.323,8.95 -19.323,19.986 v 691.247 c 0,11.038 8.651,19.987 19.323,19.987 H -19.323 C -8.652,711.234 0,702.285 0,691.247 Z"
           style="fill:rgba(0, 0, 0, 0.2);fill-opacity:1;fill-rule:nonzero;stroke:none"
           id="path30" />
            </g>
            <g
         id="g32"
         transform="translate(1135.9648,73.624)">
                <path
           d="m 0,0 c 0,-11.036 -8.652,-19.986 -19.323,-19.986 h -1041.859 c -10.672,0 -19.323,8.95 -19.323,19.986 v 691.247 c 0,11.038 8.651,19.987 19.323,19.987 H -19.323 C -8.652,711.234 0,702.285 0,691.247 Z"
           style="fill:none;stroke:#92c121;stroke-width:30;stroke-linecap:butt;stroke-linejoin:miter;stroke-miterlimit:10;stroke-dasharray:none;stroke-opacity:1"
           id="path34" />
            </g>
            <g
         id="g36"
         transform="translate(794.7461,528.2334)">
                <path
           d="m 0,0 c -17.699,0.012 -31.537,-4.178 -41.508,-12.536 -9.973,-8.361 -14.964,-19.78 -14.97,-34.261 l -0.008,-21.231 44.393,-0.002 -0.008,-51.632 -44.388,0.01 -0.058,-184.827 -55.977,0.022 0.062,247.55 c 0.014,32.818 10.075,58.636 30.186,77.441 20.112,18.811 47.379,28.213 81.802,28.204 l 13.51,-1.45 -0.015,-49.224 C 9.17,-0.645 4.827,-0.007 0,0"
           style="fill:#92c121;fill-opacity:1;fill-rule:nonzero;stroke:none"
           id="path38" />
            </g>
            <g
         id="g40"
         transform="translate(794.7461,528.2334)">
                <path
           d="m 0,0 c -17.699,0.012 -31.537,-4.178 -41.508,-12.536 -9.973,-8.361 -14.964,-19.78 -14.97,-34.261 l -0.008,-21.231 44.393,-0.002 -0.008,-51.632 -44.388,0.01 -0.058,-184.827 -55.977,0.022 0.062,247.55 c 0.014,32.818 10.075,58.636 30.186,77.441 20.112,18.811 47.379,28.213 81.802,28.204 l 13.51,-1.45 -0.015,-49.224 C 9.17,-0.645 4.827,-0.007 0,0 Z"
           style="fill:none;stroke:#050606;stroke-width:3;stroke-linecap:butt;stroke-linejoin:miter;stroke-miterlimit:10;stroke-dasharray:none;stroke-opacity:1"
           id="path42" />
            </g>
            <g
         id="g44"
         transform="translate(838.7373,223.7686)">
                <path
           d="M 0,0 0.07,236.461 56.047,236.433 55.981,-0.015 Z m 2.022,289.063 c -7.085,7.071 -10.618,15.755 -10.613,26.045 0.003,10.301 3.542,18.986 10.625,26.063 7.069,7.063 15.755,10.608 26.056,10.605 10.621,0.009 19.47,-3.617 26.543,-10.862 7.068,-7.236 10.613,-15.851 10.608,-25.822 -0.004,-9.979 -3.71,-18.655 -11.106,-26.046 -6.769,-7.405 -15.442,-11.105 -26.064,-11.093 -9.974,-0.007 -18.663,3.697 -26.049,11.11"
           style="fill:#92c121;fill-opacity:1;fill-rule:nonzero;stroke:none"
           id="path46" />
            </g>
            <g
         id="g48"
         transform="translate(838.7373,223.7686)">
                <path
           d="M 0,0 0.07,236.461 56.047,236.433 55.981,-0.015 Z m 2.022,289.063 c -7.085,7.071 -10.618,15.755 -10.613,26.045 0.003,10.301 3.542,18.986 10.625,26.063 7.069,7.063 15.755,10.608 26.056,10.605 10.621,0.009 19.47,-3.617 26.543,-10.862 7.068,-7.236 10.613,-15.851 10.608,-25.822 -0.004,-9.979 -3.71,-18.655 -11.106,-26.046 -6.769,-7.405 -15.442,-11.105 -26.064,-11.093 -9.974,-0.007 -18.663,3.697 -26.049,11.11 z"
           style="fill:none;stroke:#050606;stroke-width:3;stroke-linecap:butt;stroke-linejoin:miter;stroke-miterlimit:10;stroke-dasharray:none;stroke-opacity:1"
           id="path50" />
            </g>
            <g
         id="g52"
         transform="translate(1012.54,222.1221)">
                <path
           d="m 0,0 c -23.492,0.016 -42.305,6.052 -56.458,18.13 -14.163,12.058 -23.478,29.51 -27.977,52.347 -1.295,5.476 -1.929,11.752 -1.923,18.828 l 0.065,215.698 55.977,-0.013 -0.024,-67.077 44.871,-0.014 -0.002,-51.628 -44.883,0.006 -0.021,-96.983 c -0.002,-10.956 3.12,-19.714 9.399,-26.31 6.264,-6.599 15.026,-10.543 26.292,-11.83 h 9.171 L 14.471,0.009 Z"
           style="fill:#92c121;fill-opacity:1;fill-rule:nonzero;stroke:none"
           id="path54" />
            </g>
            <g
         id="g56"
         transform="translate(1012.54,222.1221)">
                <path
           d="m 0,0 c -23.492,0.016 -42.305,6.052 -56.458,18.13 -14.163,12.058 -23.478,29.51 -27.977,52.347 -1.295,5.476 -1.929,11.752 -1.923,18.828 l 0.065,215.698 55.977,-0.013 -0.024,-67.077 44.871,-0.014 -0.002,-51.628 -44.883,0.006 -0.021,-96.983 c -0.002,-10.956 3.12,-19.714 9.399,-26.31 6.264,-6.599 15.026,-10.543 26.292,-11.83 h 9.171 L 14.471,0.009 Z"
           style="fill:none;stroke:#050606;stroke-width:3;stroke-linecap:butt;stroke-linejoin:miter;stroke-miterlimit:10;stroke-dasharray:none;stroke-opacity:1"
           id="path58" />
            </g>
            <g
         id="g60"
         transform="translate(512.9116,223.9092)">
                <path
           d="m 0,0 0.029,94.647 c -0.008,9.961 -1.235,18.893 -3.73,26.775 -2.487,7.893 -6.219,14.951 -11.203,21.182 -4.976,6.226 -11.207,11.071 -18.683,14.533 -7.462,3.456 -15.494,5.195 -24.063,5.192 -7.754,0.009 -15.155,-1.454 -22.214,-4.359 -7.061,-2.894 -13.358,-7.256 -18.892,-13.063 -5.545,-5.81 -9.692,-12.322 -12.46,-19.504 -2.775,-7.2 -4.156,-14.394 -4.16,-21.585 0,-12.178 3.384,-23.391 10.164,-33.632 6.774,-10.245 16.387,-17.722 28.843,-22.421 6.913,-2.772 13.284,-4.163 19.094,-4.163 7.196,-0.004 13.974,0.69 20.343,2.075 6.363,1.375 12.315,3.86 17.849,7.462 L -19.102,4.157 c -13.837,-5.249 -26.562,-7.88 -38.186,-7.871 -30.167,0.015 -55.555,10.037 -76.168,30.119 -20.608,20.058 -30.908,45.047 -30.902,74.929 0.007,30.169 10.393,55.765 31.159,76.791 20.759,21.021 46.087,31.538 75.97,31.522 30.989,0 56.379,-10.322 76.17,-30.943 19.78,-20.629 29.659,-48.099 29.657,-82.41 L 48.563,-0.013 Z"
           style="fill:#92c121;fill-opacity:1;fill-rule:nonzero;stroke:none"
           id="path62" />
            </g>
            <g
         id="g64"
         transform="translate(512.9116,223.9092)">
                <path
           d="m 0,0 0.029,94.647 c -0.008,9.961 -1.235,18.893 -3.73,26.775 -2.487,7.893 -6.219,14.951 -11.203,21.182 -4.976,6.226 -11.207,11.071 -18.683,14.533 -7.462,3.456 -15.494,5.195 -24.063,5.192 -7.754,0.009 -15.155,-1.454 -22.214,-4.359 -7.061,-2.894 -13.358,-7.256 -18.892,-13.063 -5.545,-5.81 -9.692,-12.322 -12.46,-19.504 -2.775,-7.2 -4.156,-14.394 -4.16,-21.585 0,-12.178 3.384,-23.391 10.164,-33.632 6.774,-10.245 16.387,-17.722 28.843,-22.421 6.913,-2.772 13.284,-4.163 19.094,-4.163 7.196,-0.004 13.974,0.69 20.343,2.075 6.363,1.375 12.315,3.86 17.849,7.462 L -19.102,4.157 c -13.837,-5.249 -26.562,-7.88 -38.186,-7.871 -30.167,0.015 -55.555,10.037 -76.168,30.119 -20.608,20.058 -30.908,45.047 -30.902,74.929 0.007,30.169 10.393,55.765 31.159,76.791 20.759,21.021 46.087,31.538 75.97,31.522 30.989,0 56.379,-10.322 76.17,-30.943 19.78,-20.629 29.659,-48.099 29.657,-82.41 L 48.563,-0.013 Z"
           style="fill:none;stroke:#050606;stroke-width:3;stroke-linecap:butt;stroke-linejoin:miter;stroke-miterlimit:10;stroke-dasharray:none;stroke-opacity:1"
           id="path66" />
            </g>
            <g
         id="g68"
         transform="translate(264.417,223.6357)">
                <path
           d="M 0,0 0.099,351.825 6.58,351.828 64.6,351.803 64.497,-0.006 Z"
           style="fill:#92c121;fill-opacity:1;fill-rule:nonzero;stroke:none"
           id="path70" />
            </g>
            <g
         id="g72"
         transform="translate(264.417,223.6357)">
                <path
           d="M 0,0 0.099,351.825 6.58,351.828 64.6,351.803 64.497,-0.006 Z"
           style="fill:none;stroke:#050606;stroke-width:3;stroke-linecap:butt;stroke-linejoin:miter;stroke-miterlimit:10;stroke-dasharray:none;stroke-opacity:1"
           id="path74" />
            </g>
            <g
         id="g76"
         transform="translate(270.2227,575.4639)">
                <path
           d="m 0,0 h -8.135 l -95.517,-100.257 39.496,-39.211 56.17,57.561 8.068,8.128 z"
           style="fill:#92c121;fill-opacity:1;fill-rule:nonzero;stroke:none"
           id="path78" />
            </g>
            <g
         id="g80"
         transform="translate(270.2227,575.4639)">
                <path
           d="m 0,0 h -8.135 l -95.517,-100.257 39.496,-39.211 56.17,57.561 8.068,8.128 z"
           style="fill:none;stroke:##050606;stroke-width:3;stroke-linecap:butt;stroke-linejoin:miter;stroke-miterlimit:10;stroke-dasharray:none;stroke-opacity:1"
           id="path82" />
            </g>
            <path
         d="m 277.976,493.374 h -11.961 v 80.583 h 11.961 z"
         style="fill:#92c121;fill-opacity:1;fill-rule:nonzero;stroke:none"
         id="path84" />
            <g
         id="g86"
         transform="translate(546.6733,112.6611)">
                <path
           d="m 0,0 c -1.97,1.99 -2.958,4.35 -2.954,7.097 0.006,2.84 0.964,5.196 2.902,7.029 1.931,1.843 4.272,2.786 7.029,2.778 2.752,0 5.094,-0.965 7.023,-2.901 C 15.938,12.062 16.905,9.71 16.909,6.962 16.912,4.299 15.913,1.979 13.935,0.003 11.957,-1.985 9.634,-2.965 6.969,-2.965 4.307,-2.96 1.973,-1.974 0,0"
           style="fill:#dfe6e9;fill-opacity:1;fill-rule:nonzero;stroke:none"
           id="path88" />
            </g>
            <g
         id="g90"
         transform="translate(870.4717,112.5107)">
                <path
           d="m 0,0 c -1.978,1.978 -2.962,4.338 -2.962,7.099 -10e-4,2.838 0.962,5.174 2.908,7.032 1.937,1.839 4.278,2.76 7.031,2.763 2.752,-0.006 5.086,-0.984 7.018,-2.908 C 15.932,12.045 16.887,9.707 16.89,6.953 16.902,4.291 15.904,1.977 13.925,-0.015 11.942,-1.993 9.626,-2.976 6.954,-2.974 4.299,-2.977 1.975,-1.973 0,0"
           style="fill:#dfe6e9;fill-opacity:1;fill-rule:nonzero;stroke:none"
           id="path92" />
            </g>
            <g
         id="g94"
         transform="translate(333.7725,112.2627)">
                <path
           d="m 0,0 c -4.039,-1.634 -7.949,-2.441 -11.727,-2.441 -7.745,0.003 -13.338,2.762 -16.772,8.255 -3.436,-5.495 -9.029,-8.241 -16.774,-8.234 -3.785,0.002 -7.826,0.857 -12.12,2.583 -4.299,1.714 -7.721,4.608 -10.254,8.654 -2.533,4.039 -3.803,9.029 -3.796,14.966 l 0.014,38.291 14.978,0.009 -0.028,-38.968 c -10e-4,-2.824 0.944,-5.469 2.835,-7.927 1.885,-2.453 4.341,-3.678 7.343,-3.68 3.104,-10e-4 5.644,1.285 7.616,3.864 1.719,2.233 2.593,4.862 2.59,7.875 l 0.025,38.817 15.215,-0.011 -0.026,-38.824 c 0.001,-2.915 0.904,-5.619 2.708,-8.071 1.808,-2.439 4.257,-3.668 7.347,-3.669 3.104,-0.006 5.64,1.281 7.618,3.866 1.718,2.235 2.578,4.804 2.583,7.729 L -0.6,62.033 H 14.488 L 14.464,23.72 C 14.467,17.878 13.194,12.91 10.651,8.83 8.121,4.742 4.565,1.803 0,0"
           style="fill:#dfe6e9;fill-opacity:1;fill-rule:nonzero;stroke:none"
           id="path96" />
            </g>
            <g
         id="g98"
         transform="translate(427.9385,112.2002)">
                <path
           d="m 0,0 c -4.043,-1.631 -7.957,-2.448 -11.749,-2.448 -7.728,0.013 -13.319,2.762 -16.759,8.27 -3.443,-5.494 -9.023,-8.248 -16.765,-8.245 -3.787,-0.003 -7.833,0.86 -12.13,2.594 -4.289,1.718 -7.708,4.598 -10.256,8.633 -2.528,4.051 -3.799,9.034 -3.798,14.974 l 0.041,38.311 14.957,-0.009 -0.03,-38.953 c 0.01,-2.839 0.947,-5.48 2.843,-7.939 1.887,-2.445 4.333,-3.673 7.339,-3.68 3.115,0.001 5.652,1.279 7.63,3.859 1.716,2.238 2.575,4.865 2.579,7.878 l 0.025,38.816 15.221,0.002 -0.024,-38.836 c -0.002,-2.923 0.899,-5.6 2.691,-8.067 1.812,-2.447 4.261,-3.679 7.358,-3.676 3.098,-0.005 5.632,1.287 7.611,3.866 1.726,2.238 2.589,4.81 2.591,7.736 L -0.604,62.04 14.48,62.034 14.463,23.726 C 14.457,17.873 13.186,12.91 10.654,8.837 8.112,4.74 4.556,1.798 0,0"
           style="fill:#dfe6e9;fill-opacity:1;fill-rule:nonzero;stroke:none"
           id="path100" />
            </g>
            <g
         id="g102"
         transform="translate(522.1045,112.1475)">
                <path
           d="m 0,0 c -4.049,-1.64 -7.958,-2.454 -11.75,-2.451 -7.724,-0.003 -13.333,2.764 -16.762,8.267 -3.427,-5.504 -9.027,-8.253 -16.773,-8.254 -3.784,0.009 -7.826,0.861 -12.126,2.59 -4.293,1.723 -7.708,4.609 -10.244,8.652 -2.529,4.044 -3.802,9.039 -3.791,14.972 l 0.02,38.305 14.97,0.003 -0.031,-38.977 c 0.003,-2.83 0.935,-5.481 2.832,-7.927 1.886,-2.46 4.333,-3.687 7.345,-3.689 3.104,-0.003 5.638,1.296 7.625,3.877 1.715,2.229 2.574,4.862 2.581,7.864 l 0.022,38.814 15.217,-0.003 -0.015,-38.824 c -0.006,-2.927 0.894,-5.604 2.71,-8.068 1.795,-2.438 4.243,-3.669 7.339,-3.675 3.097,-0.005 5.629,1.29 7.615,3.868 1.718,2.236 2.579,4.824 2.59,7.73 L -0.61,62.039 14.485,62.024 14.46,23.711 C 14.449,17.869 13.176,12.9 10.647,8.813 8.116,4.731 4.552,1.784 0,0"
           style="fill:#dfe6e9;fill-opacity:1;fill-rule:nonzero;stroke:none"
           id="path104" />
            </g>
            <g
         id="g106"
         transform="translate(605.0078,142.1172)">
                <path
           d="M 0,0 V 14.201 L 36.253,14.174 36.249,-0.021 Z"
           style="fill:#dfe6e9;fill-opacity:1;fill-rule:nonzero;stroke:none"
           id="path108" />
            </g>
            <g
         id="g110"
         transform="translate(700.2021,110.833)">
                <path
           d="m 0,0 0.012,29.426 c 0.006,3.098 -0.379,5.864 -1.155,8.323 -0.772,2.457 -1.925,4.642 -3.481,6.578 -1.544,1.935 -3.477,3.433 -5.796,4.521 -2.329,1.078 -4.82,1.616 -7.48,1.62 -2.412,-0.001 -4.704,-0.455 -6.906,-1.35 -2.193,-0.908 -4.145,-2.25 -5.87,-4.067 -1.725,-1.795 -3.004,-3.824 -3.881,-6.056 -0.858,-2.239 -1.293,-4.467 -1.286,-6.707 -0.005,-3.801 1.046,-7.271 3.153,-10.456 2.098,-3.179 5.086,-5.501 8.961,-6.965 2.154,-0.871 4.125,-1.303 5.936,-1.299 2.231,-10e-4 4.335,0.207 6.317,0.641 1.975,0.426 3.826,1.209 5.55,2.323 L -5.932,1.306 c -4.309,-1.625 -8.261,-2.447 -11.873,-2.443 -9.379,0 -17.265,3.122 -23.667,9.367 -6.401,6.242 -9.593,14.007 -9.59,23.291 0.005,9.374 3.23,17.327 9.684,23.861 6.461,6.534 14.323,9.79 23.614,9.794 9.625,-0.021 17.521,-3.222 23.667,-9.626 6.143,-6.428 9.203,-14.957 9.196,-25.62 L 15.074,0.003 Z"
           style="fill:#dfe6e9;fill-opacity:1;fill-rule:nonzero;stroke:none"
           id="path112" />
            </g>
            <g
         id="g114"
         transform="translate(723.1807,142.0391)">
                <path
           d="M 0,0 -0.001,14.199 36.255,14.177 36.248,-0.019 Z"
           style="fill:#dfe6e9;fill-opacity:1;fill-rule:nonzero;stroke:none"
           id="path116" />
            </g>
            <g
         id="g118"
         transform="translate(797.3838,191.3867)">
                <path
           d="m 0,0 c -4.738,-0.009 -8.442,-1.12 -11.103,-3.354 -2.668,-2.232 -3.997,-5.293 -4.006,-9.156 l 0.003,-5.68 11.866,-0.009 -0.015,-13.791 H -15.12 l -0.033,-49.391 -14.963,-0.006 0.048,66.176 c -0.003,8.772 2.685,15.673 8.068,20.696 5.384,5.033 12.669,7.546 21.869,7.546 L 3.474,12.632 3.473,-0.513 C 2.438,-0.178 1.279,-0.011 0,0"
           style="fill:#dfe6e9;fill-opacity:1;fill-rule:nonzero;stroke:none"
           id="path120" />
            </g>
            <g
         id="g122"
         transform="translate(807.6514,109.9863)">
                <path
           d="m 0,0 0.039,63.197 14.966,-0.003 -0.044,-63.21 z m 0.552,77.266 c -1.88,1.883 -2.833,4.208 -2.833,6.96 0.007,2.745 0.96,5.083 2.85,6.965 1.89,1.883 4.21,2.833 6.97,2.832 2.838,-0.002 5.192,-0.975 7.093,-2.909 1.887,-1.934 2.843,-4.231 2.839,-6.898 -0.014,-2.675 -1.005,-4.98 -2.98,-6.965 -1.806,-1.976 -4.128,-2.964 -6.965,-2.962 -2.669,0.003 -4.985,0.994 -6.974,2.977"
           style="fill:#dfe6e9;fill-opacity:1;fill-rule:nonzero;stroke:none"
           id="path124" />
            </g>
            <g
         id="g126"
         transform="translate(856.3389,109.5586)">
                <path
           d="m 0,0 c -6.282,0.008 -11.315,1.619 -15.089,4.851 -3.777,3.229 -6.273,7.894 -7.473,13.995 -0.342,1.464 -0.515,3.148 -0.51,5.047 L -23.037,81.535 -8.076,81.523 -8.092,63.599 3.909,63.59 3.9,49.801 -8.094,49.789 -8.121,23.871 c 0.009,-2.921 0.845,-5.278 2.518,-7.031 1.675,-1.772 4.014,-2.819 7.031,-3.157 L 3.879,13.675 3.867,0.006 Z"
           style="fill:#dfe6e9;fill-opacity:1;fill-rule:nonzero;stroke:none"
           id="path128" />
            </g>
            <g
         id="g130"
         transform="translate(922.5098,109.5371)">
                <path
           d="m 0,0 c -9.542,0.007 -17.432,3.092 -23.664,9.245 -6.232,6.151 -9.34,13.783 -9.332,22.898 0.004,2.162 0.174,4.297 0.516,6.444 0.356,2.148 0.95,4.338 1.809,6.583 2.236,6.268 6.086,11.242 11.557,14.89 5.467,3.661 11.843,5.475 19.155,5.478 0.947,-0.009 1.76,-0.012 2.455,-0.011 0.686,0 1.749,-0.127 3.159,-0.384 1.422,-0.258 2.523,-0.479 3.293,-0.648 0.338,-0.094 1.29,-0.388 2.83,-0.907 V 48.36 c -1.814,0.963 -3.387,1.54 -4.709,1.749 -1.329,0.209 -2.336,0.39 -3.036,0.52 -0.682,0.129 -1.508,0.21 -2.448,0.204 -5.6,0.006 -10.235,-1.765 -13.935,-5.291 -3.71,-3.529 -5.556,-7.861 -5.559,-13.021 -0.001,-4.988 1.735,-9.222 5.22,-12.701 3.474,-3.496 7.716,-5.233 12.693,-5.243 4.993,0.005 9.231,1.861 12.714,5.607 3.485,3.739 5.233,8.395 5.237,13.992 L 17.992,94.03 33.082,94.009 33.04,33.773 C 33.038,23.538 30.006,15.347 23.935,9.207 17.866,3.064 9.891,0.003 0,0"
           style="fill:#dfe6e9;fill-opacity:1;fill-rule:nonzero;stroke:none"
           id="path132" />
            </g>
            <g
         id="g134"
         transform="translate(991.0195,129.3623)">
                <path
           d="m 0,0 -6.856,8.553 23.491,18.165 c -3.098,3.595 -7.084,5.389 -11.995,5.392 -2.05,0.016 -4.012,-0.289 -5.858,-0.9 -1.847,-0.594 -3.77,-1.673 -5.736,-3.216 -2.586,-1.974 -4.536,-4.271 -5.868,-6.9 -1.332,-2.622 -2.001,-5.347 -2.003,-8.189 -0.003,-5.677 2.346,-10.443 7.077,-14.323 3.439,-2.926 7.262,-4.389 11.476,-4.391 5.326,0 10.131,2.308 14.447,6.955 0.943,0.954 1.626,1.807 2.053,2.579 l 12.005,-6.968 c -2.654,-5.158 -6.55,-9.191 -11.675,-12.123 -5.108,-2.919 -10.695,-4.376 -16.705,-4.376 -4.213,0.006 -8.384,0.779 -12.513,2.34 -6.18,2.317 -11.09,6.226 -14.694,11.739 -3.599,5.503 -5.409,11.649 -5.402,18.45 0.007,5.076 1.08,9.933 3.237,14.576 1.711,3.87 4.123,7.22 7.228,10.053 3.097,2.831 6.616,4.963 10.574,6.379 3.956,1.41 8.003,2.118 12.128,2.126 6.709,0 12.75,-1.815 18.117,-5.435 5.379,-3.609 9.178,-8.515 11.415,-14.718 z"
           style="fill:#dfe6e9;fill-opacity:1;fill-rule:nonzero;stroke:none"
           id="path136" />
            </g>
            <g
         id="g138"
         transform="translate(582.2476,109.9395)">
                <path
           d="M 0,0 0.024,81.044 1.515,81.046 14.882,81.038 14.857,0 Z"
           style="fill:#dfe6e9;fill-opacity:1;fill-rule:nonzero;stroke:none"
           id="path140" />
            </g>
            <g
         id="g142"
         transform="translate(583.585,190.9854)">
                <path
           d="m 0,0 h -1.873 l -22.002,-23.095 9.097,-9.032 12.941,13.261 1.858,1.871 z"
           style="fill:#dfe6e9;fill-opacity:1;fill-rule:nonzero;stroke:none"
           id="path144" />
            </g>
            <path
         d="m 585.523,171.97 h -2.752 v 18.521 h 2.752 z"
         style="fill:#dfe6e9;fill-opacity:1;fill-rule:nonzero;stroke:none"
         id="path146" />
            <g
         id="g148"
         transform="translate(201.0088,720.6309)">
                <path
           d="m 0,0 c -5.888,-0.001 -10.506,-1.4 -13.827,-4.187 -3.333,-2.797 -4.987,-6.598 -4.988,-11.435 l -0.007,-7.075 14.814,-0.005 -0.009,-17.223 -14.799,0.003 -0.005,-61.647 -18.663,-10e-4 -0.008,82.57 c 0.007,10.938 3.356,19.555 10.065,25.829 6.7,6.285 15.788,9.43 27.278,9.428 L 4.359,15.769 V -0.645 C 3.069,-0.228 1.623,-0.004 0,0"
           style="fill:#dfe6e9;fill-opacity:1;fill-rule:nonzero;stroke:none"
           id="path150" />
            </g>
            <g
         id="g152"
         transform="translate(245.7476,708.3711)">
                <path
           d="m 0,0 c -2.028,2.026 -3.042,4.473 -3.034,7.352 -0.013,2.879 1.055,5.322 3.183,7.343 2.138,2.022 4.527,3.034 7.194,3.039 2.87,0 5.348,-1.045 7.431,-3.118 2.076,-2.081 3.112,-4.493 3.111,-7.269 C 17.886,4.365 16.817,1.92 14.694,-0.002 12.782,-2.132 10.328,-3.195 7.349,-3.196 4.576,-3.19 2.125,-2.134 0,0 m -19.771,-3.192 c -2.907,0.001 -5.376,1.013 -7.412,3.063 -2.038,2.028 -3.063,4.498 -3.053,7.395 0.002,2.896 1.012,5.371 3.049,7.404 2.04,2.031 4.499,3.058 7.407,3.058 2.676,0 5.097,-1.017 7.242,-3.057 2.147,-2.038 3.225,-4.504 3.218,-7.406 0.003,-3.006 -1.071,-5.496 -3.215,-7.482 -2.154,-1.985 -4.566,-2.976 -7.236,-2.975 m 13.522,-87.564 c -11.166,0 -20.174,3.332 -27.05,9.983 -6.868,6.647 -10.294,15.233 -10.297,25.747 l -0.007,44.589 18.672,-0.003 0.005,-43.944 c -0.006,-5.467 1.708,-9.925 5.146,-13.359 3.431,-3.427 7.835,-5.139 13.197,-5.145 5.584,-0.005 10.12,1.687 13.605,5.069 3.492,3.385 5.233,7.862 5.232,13.439 l -0.01,43.948 h 18.677 l 0.004,-44.59 c 0.002,-10.413 -3.458,-18.969 -10.374,-25.671 -6.928,-6.705 -15.86,-10.056 -26.8,-10.063"
           style="fill:#dfe6e9;fill-opacity:1;fill-rule:nonzero;stroke:none"
           id="path154" />
            </g>
            <g
         id="g156"
         transform="translate(319.6484,681.7729)">
                <path
           d="m 0,0 c -4.297,-0.001 -7.696,-1.32 -10.231,-3.965 -2.506,-2.639 -3.78,-6.114 -3.782,-10.423 l 0.009,-48.316 -18.663,-0.006 -0.003,50.224 c -0.003,6.441 1.851,12.208 5.55,17.305 3.7,5.092 8.717,8.766 15.05,11.019 3.105,1.184 6.495,1.775 10.131,1.778 2.153,-0.006 3.763,-0.001 4.83,0 L 2.897,-0.001 Z"
           style="fill:#dfe6e9;fill-opacity:1;fill-rule:nonzero;stroke:none"
           id="path158" />
            </g>
            <g
         id="g160"
         transform="translate(377.5952,617.7817)">
                <path
           d="m 0,0 c -0.654,-0.108 -1.37,-0.157 -2.186,-0.155 -0.798,-0.007 -1.407,0.003 -1.844,0.001 -2.473,-0.008 -4.723,0.207 -6.757,0.647 l -0.003,19.302 c 1.392,-0.425 2.927,-0.643 4.635,-0.643 5.213,0.004 9.323,1.447 12.297,4.354 2.983,2.891 4.466,6.859 4.467,11.9 l -0.002,81.77 20.926,-0.005 0.006,-84.333 C 31.542,24.363 28.648,17.036 22.844,10.866 17.056,4.694 9.44,1.067 0,0"
           style="fill:#dfe6e9;fill-opacity:1;fill-rule:nonzero;stroke:none"
           id="path162" />
            </g>
            <g
         id="g164"
         transform="translate(457.5908,617.6294)">
                <path
           d="m 0,0 c -11.167,-0.001 -20.174,3.322 -27.048,9.979 -6.867,6.646 -10.295,15.231 -10.297,25.746 l -0.006,44.587 h 18.66 l 0.014,-44.107 c -0.004,-5.468 1.69,-9.948 5.067,-13.433 3.385,-3.492 7.804,-5.234 13.287,-5.231 5.469,-0.006 9.969,1.711 13.516,5.155 3.531,3.435 5.309,7.935 5.309,13.516 l -0.009,44.104 18.672,0.003 0.013,-44.587 C 37.177,25.322 33.718,16.756 26.799,10.052 19.871,3.346 10.942,-0.004 0,0"
           style="fill:#dfe6e9;fill-opacity:1;fill-rule:nonzero;stroke:none"
           id="path166" />
            </g>
            <g
         id="g168"
         transform="translate(560.9233,619.0757)">
                <path
           d="m 0,0 -0.003,44.267 c -0.007,5.472 -1.676,9.923 -4.989,13.361 -3.325,3.432 -7.782,5.152 -13.365,5.152 -5.58,0 -10.111,-1.691 -13.602,-5.074 -3.481,-3.381 -5.223,-7.864 -5.223,-13.438 L -37.174,0.003 -55.859,0 l 0.005,44.586 c -0.005,7.946 2.038,14.86 6.11,20.762 4.081,5.903 9.608,10.09 16.579,12.555 2.462,0.967 5.021,1.665 7.652,2.095 2.621,0.424 5.225,0.647 7.805,0.644 C -7.417,80.647 1.217,77.211 8.206,70.337 15.179,63.472 18.66,54.896 18.667,44.591 L 18.662,0.009 Z"
           style="fill:#dfe6e9;fill-opacity:1;fill-rule:nonzero;stroke:none"
           id="path170" />
            </g>
            <g
         id="g172"
         transform="translate(616.1299,583.8242)">
                <path
           d="m 0,0 c -1.291,0.218 -2.875,0.535 -4.754,0.963 -1.868,0.429 -3.558,0.849 -5.059,1.283 l 0.003,18.205 c 3.216,-1.334 6.434,-2.191 9.645,-2.606 1.287,-0.101 2.55,-0.227 3.781,-0.386 1.234,-0.149 2.554,-0.226 3.95,-0.23 8.898,0.006 15.743,2.277 20.514,6.83 4.784,4.551 7.178,10.679 7.174,18.392 l -0.008,31.482 c 0,6.969 -2.071,12.724 -6.197,17.275 -4.132,4.544 -9.365,6.826 -15.689,6.823 C 6.81,98.033 1.434,95.722 -2.74,91.114 -6.921,86.497 -9.017,80.7 -9.016,73.725 -9.021,67.395 -6.763,62.194 -2.256,58.114 2.251,54.034 7.83,52 14.49,51.994 c 2.352,-0.002 4.895,0.346 7.641,1.043 2.735,0.702 5.123,1.699 7.167,2.991 L 29.295,37.351 c -2.361,-0.855 -4.893,-1.556 -7.57,-2.089 -2.681,-0.543 -5.519,-0.807 -8.523,-0.806 -3.545,-0.004 -6.551,0.154 -9.012,0.482 -2.468,0.326 -5.211,1.067 -8.225,2.248 -7.286,2.58 -13.164,7.164 -17.626,13.764 -4.441,6.601 -6.67,14.083 -6.667,22.455 -0.005,5.476 1.12,11.108 3.377,16.905 4.188,10.615 11.584,18.185 22.209,22.69 5.469,2.359 11.111,3.538 16.9,3.545 8.268,0.001 15.856,-2.337 22.778,-6.991 6.92,-4.659 11.718,-10.742 14.401,-18.245 2.033,-5.465 3.059,-11.359 3.062,-17.682 L 54.404,41.959 C 54.399,29.641 50.214,19.459 41.847,11.42 33.483,3.385 22.476,-0.633 8.854,-0.633 7.349,-0.638 5.897,-0.638 4.502,-0.637 2.463,-0.317 0.965,-0.098 0,0"
           style="fill:#dfe6e9;fill-opacity:1;fill-rule:nonzero;stroke:none"
           id="path174" />
            </g>
            <g
         id="g176"
         transform="translate(930.415,698.7729)">
                <path
           d="m 0,0 c 0.011,9.114 -3.482,15.236 -10.456,18.351 -3.22,1.281 -6.382,1.924 -9.488,1.927 -4.196,0.007 -7.977,-1.126 -11.364,-3.38 -3.37,-2.253 -5.649,-5.148 -6.838,-8.694 -0.746,-2.575 -1.12,-5.306 -1.12,-8.204 l -0.004,-20.119 39.274,0.006 z M 0.011,-79.671 0,-37.342 l -39.258,-0.003 -0.004,-42.326 -20.923,-0.009 -0.004,78.713 c 0,11.484 3.644,20.917 10.939,28.332 7.299,7.401 16.742,11.106 28.324,11.102 6.226,0 12.71,-1.26 19.482,-3.783 6.759,-2.519 12.177,-6.917 16.253,-13.192 4.081,-6.284 6.116,-13.764 6.125,-22.458 l 0.004,-78.705 z"
           style="fill:#dfe6e9;fill-opacity:1;fill-rule:nonzero;stroke:none"
           id="path178" />
            </g>
            <g
         id="g180"
         transform="translate(962.46,619.0977)">
                <path
           d="m 0,0 -0.015,115.893 h 18.67 L 18.67,0.004 Z"
           style="fill:#dfe6e9;fill-opacity:1;fill-rule:nonzero;stroke:none"
           id="path182" />
            </g>
            <g
         id="g184"
         transform="translate(1020.2383,618.6167)">
                <path
           d="m 0,0 c -7.833,-0.002 -14.113,2.011 -18.834,6.038 -4.728,4.018 -7.84,9.842 -9.336,17.462 -0.434,1.827 -0.644,3.916 -0.638,6.28 l -0.012,71.947 18.674,0.002 0.001,-22.374 14.964,0.003 V 62.133 H -10.149 L -10.15,29.775 c 0.008,-3.637 1.053,-6.566 3.14,-8.765 2.101,-2.198 5.021,-3.521 8.776,-3.942 L 4.825,17.06 4.833,0 Z"
           style="fill:#dfe6e9;fill-opacity:1;fill-rule:nonzero;stroke:none"
           id="path186" />
            </g>
            <g
         id="g188"
         transform="translate(743.2168,709.5649)">
                <path
           d="m 0,0 c 0,-1.734 0.273,-3.354 0.827,-4.855 0.549,-1.508 1.356,-2.995 2.428,-4.468 1.068,-1.475 2.371,-2.965 3.898,-4.467 1.534,-1.503 3.256,-3.152 5.162,-4.942 2.023,1.27 3.901,2.571 5.639,3.901 1.731,1.331 3.235,2.747 4.506,4.251 1.275,1.502 2.272,3.105 2.999,4.813 0.719,1.705 1.08,3.539 1.08,5.508 0,3.35 -1.155,6.038 -3.471,8.065 -2.313,2.022 -5.578,3.035 -9.795,3.035 -2.141,0 -4.038,-0.29 -5.683,-0.868 C 5.939,9.395 4.555,8.614 3.429,7.632 2.297,6.648 1.446,5.507 0.869,4.206 0.291,2.905 0,1.503 0,0 m 9.28,-75.883 c 3.993,0 7.993,0.607 12.012,1.82 4.021,1.214 7.849,3.094 11.49,5.638 -2.196,2.255 -4.425,4.537 -6.678,6.851 -2.255,2.313 -4.48,4.598 -6.675,6.852 -2.2,2.254 -4.354,4.435 -6.463,6.548 -2.11,2.111 -4.091,4.119 -5.939,6.026 -2.026,-1.271 -3.904,-2.602 -5.637,-3.99 -1.739,-1.387 -3.226,-2.861 -4.464,-4.421 -1.248,-1.56 -2.232,-3.239 -2.955,-5.031 -0.719,-1.794 -1.083,-3.729 -1.083,-5.811 0,-2.427 0.429,-4.54 1.302,-6.329 0.868,-1.793 2.039,-3.297 3.513,-4.511 1.474,-1.214 3.206,-2.124 5.204,-2.733 1.996,-0.605 4.12,-0.909 6.373,-0.909 m 64.523,47.262 c -0.809,-7.921 -2.441,-15.059 -4.904,-21.419 -2.451,-6.361 -5.534,-12.027 -9.232,-16.998 2.947,-3.006 5.725,-5.869 8.328,-8.586 2.6,-2.717 4.925,-5.131 6.981,-7.24 2.046,-2.113 3.727,-3.846 5.027,-5.203 1.302,-1.359 2.099,-2.185 2.388,-2.473 H 53.077 c -0.982,1.272 -2.082,2.587 -3.293,3.946 -1.215,1.358 -2.839,3.136 -4.862,5.334 -5.605,-3.873 -11.615,-6.751 -18.035,-8.63 -6.419,-1.877 -12.926,-2.818 -19.513,-2.818 -5.321,0 -10.177,0.737 -14.571,2.212 -4.394,1.474 -8.157,3.555 -11.276,6.243 -3.118,2.69 -5.548,5.954 -7.283,9.8 -1.736,3.845 -2.603,8.11 -2.603,12.792 0,3.992 0.624,7.589 1.864,10.797 1.247,3.209 2.91,6.114 4.987,8.716 2.084,2.602 4.486,4.957 7.199,7.07 2.718,2.109 5.551,4.059 8.499,5.854 -2.194,2.136 -4.234,4.275 -6.114,6.415 -1.881,2.141 -3.511,4.365 -4.897,6.679 -1.391,2.311 -2.471,4.754 -3.253,7.327 -0.779,2.572 -1.176,5.363 -1.176,8.369 0,4.393 0.785,8.326 2.343,11.794 1.565,3.471 3.819,6.417 6.766,8.846 2.948,2.428 6.549,4.278 10.798,5.551 4.25,1.27 9.062,1.908 14.438,1.908 5.381,0 10.206,-0.578 14.479,-1.735 4.284,-1.157 7.911,-2.877 10.89,-5.159 2.976,-2.286 5.277,-5.118 6.894,-8.5 1.617,-3.382 2.428,-7.301 2.428,-11.75 0,-3.933 -0.612,-7.473 -1.824,-10.623 -1.212,-3.154 -2.858,-6 -4.939,-8.543 -2.082,-2.545 -4.483,-4.856 -7.2,-6.939 -2.721,-2.081 -5.552,-4.048 -8.499,-5.897 2.834,-2.891 6.072,-6.216 9.716,-9.974 3.643,-3.758 7.484,-7.718 11.534,-11.879 1.902,3.351 3.483,7.082 4.726,11.186 1.243,4.105 2.062,8.613 2.47,13.527 z"
           style="fill:#dfe6e9;fill-opacity:1;fill-rule:nonzero;stroke:none"
           id="path190" />
            </g>
        </g>
    </g>
</svg>
