<?xml version="1.0" encoding="UTF-8" standalone="no"?>
<svg
    xmlns:dc="http://purl.org/dc/elements/1.1/"
    xmlns:cc="http://creativecommons.org/ns#"
    xmlns:rdf="http://www.w3.org/1999/02/22-rdf-syntax-ns#"
    xmlns:svg="http://www.w3.org/2000/svg"
    xmlns="http://www.w3.org/2000/svg"
   id="svg8"
   version="1.1"
   viewBox="0 0 115.42924 48.060059"
   height="48.060059mm"
   width="115.42924mm">
    <defs
     id="defs2">
        <clipPath
       clipPathUnits="userSpaceOnUse"
       id="clipPath831">
            <path
         d="M 0,841.89 H 1190.552 V 0 H 0 Z"
         id="path829" />
        </clipPath>
    </defs>
    <metadata
     id="metadata5">
        <rdf:RDF>
            <cc:Work
         rdf:about="">
                <dc:format>image/svg+xml</dc:format>
                <dc:type
           rdf:resource="http://purl.org/dc/dcmitype/StillImage" />
                <dc:title></dc:title>
            </cc:Work>
        </rdf:RDF>
    </metadata>
    <g
     transform="translate(-0.03478879,0.10829558)"
     id="layer1">
        <g
       id="g823"
       transform="matrix(0.1335832,0,0,-0.1335832,-21.935785,77.165766)">
            <g
         id="g825">
                <g
           id="g827"
           clip-path="url(#clipPath831)">
                    <g
             id="g841"
             transform="translate(794.7461,528.2334)">
                        <path
               d="m 0,0 c -17.699,0.012 -31.537,-4.178 -41.508,-12.536 -9.973,-8.361 -14.964,-19.78 -14.97,-34.261 l -0.008,-21.231 44.393,-0.002 -0.008,-51.632 -44.388,0.01 -0.058,-184.827 -55.977,0.022 0.062,247.55 c 0.014,32.818 10.075,58.636 30.186,77.441 20.112,18.811 47.379,28.213 81.802,28.204 l 13.51,-1.45 -0.015,-49.224 C 9.17,-0.645 4.827,-0.007 0,0"
               style="fill:#92c121;fill-opacity:1;fill-rule:nonzero;stroke:none"
               id="path843" />
                    </g>
                    <g
             id="g845"
             transform="translate(794.7461,528.2334)">
                        <path
               d="m 0,0 c -17.699,0.012 -31.537,-4.178 -41.508,-12.536 -9.973,-8.361 -14.964,-19.78 -14.97,-34.261 l -0.008,-21.231 44.393,-0.002 -0.008,-51.632 -44.388,0.01 -0.058,-184.827 -55.977,0.022 0.062,247.55 c 0.014,32.818 10.075,58.636 30.186,77.441 20.112,18.811 47.379,28.213 81.802,28.204 l 13.51,-1.45 -0.015,-49.224 C 9.17,-0.645 4.827,-0.007 0,0 Z"
               style="fill:none;stroke:#050606;stroke-width:4;stroke-linecap:butt;stroke-linejoin:miter;stroke-miterlimit:10;stroke-dasharray:none;stroke-opacity:1"
               id="path847" />
                    </g>
                    <g
             id="g849"
             transform="translate(838.7373,223.7686)">
                        <path
               d="M 0,0 0.07,236.461 56.047,236.433 55.981,-0.015 Z m 2.022,289.063 c -7.085,7.071 -10.618,15.755 -10.613,26.045 0.003,10.301 3.542,18.986 10.625,26.063 7.069,7.063 15.755,10.608 26.056,10.605 10.621,0.009 19.47,-3.617 26.543,-10.862 7.068,-7.236 10.613,-15.851 10.608,-25.822 -0.004,-9.979 -3.71,-18.655 -11.106,-26.046 -6.769,-7.405 -15.442,-11.105 -26.064,-11.093 -9.974,-0.007 -18.663,3.697 -26.049,11.11"
               style="fill:#92c121;fill-opacity:1;fill-rule:nonzero;stroke:none"
               id="path851" />
                    </g>
                    <g
             id="g853"
             transform="translate(838.7373,223.7686)">
                        <path
               d="M 0,0 0.07,236.461 56.047,236.433 55.981,-0.015 Z m 2.022,289.063 c -7.085,7.071 -10.618,15.755 -10.613,26.045 0.003,10.301 3.542,18.986 10.625,26.063 7.069,7.063 15.755,10.608 26.056,10.605 10.621,0.009 19.47,-3.617 26.543,-10.862 7.068,-7.236 10.613,-15.851 10.608,-25.822 -0.004,-9.979 -3.71,-18.655 -11.106,-26.046 -6.769,-7.405 -15.442,-11.105 -26.064,-11.093 -9.974,-0.007 -18.663,3.697 -26.049,11.11 z"
               style="fill:none;stroke:#050606;stroke-width:4;stroke-linecap:butt;stroke-linejoin:miter;stroke-miterlimit:10;stroke-dasharray:none;stroke-opacity:1"
               id="path855" />
                    </g>
                    <g
             id="g857"
             transform="translate(1012.54,222.1221)">
                        <path
               d="m 0,0 c -23.492,0.016 -42.305,6.052 -56.458,18.13 -14.163,12.058 -23.478,29.51 -27.977,52.347 -1.295,5.476 -1.929,11.752 -1.923,18.828 l 0.065,215.698 55.977,-0.013 -0.024,-67.077 44.871,-0.014 -0.002,-51.628 -44.883,0.006 -0.021,-96.983 c -0.002,-10.956 3.12,-19.714 9.399,-26.31 6.264,-6.599 15.026,-10.543 26.292,-11.83 h 9.171 L 14.471,0.009 Z"
               style="fill:#92c121;fill-opacity:1;fill-rule:nonzero;stroke:none"
               id="path859" />
                    </g>
                    <g
             id="g861"
             transform="translate(1012.54,222.1221)">
                        <path
               d="m 0,0 c -23.492,0.016 -42.305,6.052 -56.458,18.13 -14.163,12.058 -23.478,29.51 -27.977,52.347 -1.295,5.476 -1.929,11.752 -1.923,18.828 l 0.065,215.698 55.977,-0.013 -0.024,-67.077 44.871,-0.014 -0.002,-51.628 -44.883,0.006 -0.021,-96.983 c -0.002,-10.956 3.12,-19.714 9.399,-26.31 6.264,-6.599 15.026,-10.543 26.292,-11.83 h 9.171 L 14.471,0.009 Z"
               style="fill:none;stroke:#050606;stroke-width:4;stroke-linecap:butt;stroke-linejoin:miter;stroke-miterlimit:10;stroke-dasharray:none;stroke-opacity:1"
               id="path863" />
                    </g>
                    <g
             id="g865"
             transform="translate(512.9116,223.9092)">
                        <path
               d="m 0,0 0.029,94.647 c -0.008,9.961 -1.235,18.893 -3.73,26.775 -2.487,7.893 -6.219,14.951 -11.203,21.182 -4.976,6.226 -11.207,11.071 -18.683,14.533 -7.462,3.456 -15.494,5.195 -24.063,5.192 -7.754,0.009 -15.155,-1.454 -22.214,-4.359 -7.061,-2.894 -13.358,-7.256 -18.892,-13.063 -5.545,-5.81 -9.692,-12.322 -12.46,-19.504 -2.775,-7.2 -4.156,-14.394 -4.16,-21.585 0,-12.178 3.384,-23.391 10.164,-33.632 6.774,-10.245 16.387,-17.722 28.843,-22.421 6.913,-2.772 13.284,-4.163 19.094,-4.163 7.196,-0.004 13.974,0.69 20.343,2.075 6.363,1.375 12.315,3.86 17.849,7.462 L -19.102,4.157 c -13.837,-5.249 -26.562,-7.88 -38.186,-7.871 -30.167,0.015 -55.555,10.037 -76.168,30.119 -20.608,20.058 -30.908,45.047 -30.902,74.929 0.007,30.169 10.393,55.765 31.159,76.791 20.759,21.021 46.087,31.538 75.97,31.522 30.989,0 56.379,-10.322 76.17,-30.943 19.78,-20.629 29.659,-48.099 29.657,-82.41 L 48.563,-0.013 Z"
               style="fill:#92c121;fill-opacity:1;fill-rule:nonzero;stroke:none"
               id="path867" />
                    </g>
                    <g
             id="g869"
             transform="translate(512.9116,223.9092)">
                        <path
               d="m 0,0 0.029,94.647 c -0.008,9.961 -1.235,18.893 -3.73,26.775 -2.487,7.893 -6.219,14.951 -11.203,21.182 -4.976,6.226 -11.207,11.071 -18.683,14.533 -7.462,3.456 -15.494,5.195 -24.063,5.192 -7.754,0.009 -15.155,-1.454 -22.214,-4.359 -7.061,-2.894 -13.358,-7.256 -18.892,-13.063 -5.545,-5.81 -9.692,-12.322 -12.46,-19.504 -2.775,-7.2 -4.156,-14.394 -4.16,-21.585 0,-12.178 3.384,-23.391 10.164,-33.632 6.774,-10.245 16.387,-17.722 28.843,-22.421 6.913,-2.772 13.284,-4.163 19.094,-4.163 7.196,-0.004 13.974,0.69 20.343,2.075 6.363,1.375 12.315,3.86 17.849,7.462 L -19.102,4.157 c -13.837,-5.249 -26.562,-7.88 -38.186,-7.871 -30.167,0.015 -55.555,10.037 -76.168,30.119 -20.608,20.058 -30.908,45.047 -30.902,74.929 0.007,30.169 10.393,55.765 31.159,76.791 20.759,21.021 46.087,31.538 75.97,31.522 30.989,0 56.379,-10.322 76.17,-30.943 19.78,-20.629 29.659,-48.099 29.657,-82.41 L 48.563,-0.013 Z"
               style="fill:none;stroke:#050606;stroke-width:4;stroke-linecap:butt;stroke-linejoin:miter;stroke-miterlimit:10;stroke-dasharray:none;stroke-opacity:1"
               id="path871" />
                    </g>
                    <g
             id="g873"
             transform="translate(264.417,223.6357)">
                        <path
               d="M 0,0 0.099,351.825 6.58,351.828 64.6,351.803 64.497,-0.006 Z"
               style="fill:#92c121;fill-opacity:1;fill-rule:nonzero;stroke:none"
               id="path875" />
                    </g>
                    <g
             id="g877"
             transform="translate(264.417,223.6357)">
                        <path
               d="M 0,0 0.099,351.825 6.58,351.828 64.6,351.803 64.497,-0.006 Z"
               style="fill:none;stroke:#050606;stroke-width:4;stroke-linecap:butt;stroke-linejoin:miter;stroke-miterlimit:10;stroke-dasharray:none;stroke-opacity:1"
               id="path879" />
                    </g>
                    <g
             id="g881"
             transform="translate(270.2227,575.4639)">
                        <path
               d="m 0,0 h -8.135 l -95.517,-100.257 39.496,-39.211 56.17,57.561 8.068,8.128 z"
               style="fill:#92c121;fill-opacity:1;fill-rule:nonzero;stroke:none"
               id="path883" />
                    </g>
                    <g
             id="g885"
             transform="translate(270.2227,575.4639)">
                        <path
               d="m 0,0 h -8.135 l -95.517,-100.257 39.496,-39.211 56.17,57.561 8.068,8.128 z"
               style="fill:none;stroke:#050606;stroke-width:4;stroke-linecap:butt;stroke-linejoin:miter;stroke-miterlimit:10;stroke-dasharray:none;stroke-opacity:1"
               id="path887" />
                    </g>
                    <path
             d="m 277.976,493.374 h -11.961 v 80.583 h 11.961 z"
             style="fill:#92c121;fill-opacity:1;fill-rule:nonzero;stroke:none"
             id="path889" />
                </g>
            </g>
        </g>
    </g>
</svg>
